<svg width="17" height="20" viewBox="0 0 17 20" fill="none" xmlns="http://www.w3.org/2000/svg">
<path d="M1 14.68L10 5.68L5.23529 1V19L10 14.32L1 5.32" stroke="#3B3333" stroke-width="2" stroke-linecap="round" stroke-linejoin="round"/>
<path d="M11.0406 7.35202C11.5102 6.88241 12.299 6.96123 12.5388 7.58057C12.7907 8.23132 12.9291 8.93859 12.9292 9.6783C12.9292 10.2017 12.8596 10.7089 12.7297 11.1912C12.543 11.8838 11.6879 12.0084 11.1807 11.5012C10.8817 11.2021 10.7983 10.7579 10.8715 10.3414C10.9094 10.126 10.9292 9.90446 10.9292 9.6783C10.9291 9.31117 10.8774 8.95607 10.7808 8.61997C10.6532 8.17628 10.7142 7.67847 11.0406 7.35202Z" fill="#3B3333"/>
<path fill-rule="evenodd" clip-rule="evenodd" d="M13.8989 4.49385C14.3279 4.06449 15.0399 4.10437 15.3579 4.62142C16.2628 6.09299 16.786 7.8241 16.786 9.67839C16.786 11.3452 16.363 12.9125 15.6203 14.2813C15.3194 14.836 14.5754 14.8962 14.1293 14.4498C13.788 14.1083 13.7393 13.5775 13.9579 13.147C14.487 12.1052 14.786 10.9269 14.786 9.67839C14.786 8.28103 14.4127 6.97087 13.7604 5.84214C13.5092 5.40733 13.5439 4.84907 13.8989 4.49385Z" fill="#3B3333"/>
</svg>
