<svg width="26" height="26" viewBox="0 0 26 26" fill="none" xmlns="http://www.w3.org/2000/svg">
<path d="M2.55644 21.5429C2.14896 21.532 1.74974 21.4255 1.39101 21.2319C1.03228 21.0384 0.724079 20.7632 0.491296 20.4286C0.249897 20.0965 0.0915522 19.7114 0.0295154 19.3056C-0.0325213 18.8998 0.00355492 18.485 0.134725 18.096L0.491296 16.952C1.41422 14.6127 2.01402 12.1585 2.27415 9.65714H25.3027C25.0486 12.4026 24.4084 15.0985 23.401 17.6651L22.7027 19.76C22.531 20.2786 22.2004 20.7299 21.7577 21.05C21.315 21.37 20.7827 21.5424 20.2364 21.5429H2.55644ZM20.2216 23.7714H2.39301C2.47894 24.3885 2.7848 24.9537 3.25433 25.3632C3.72385 25.7727 4.32545 25.9988 4.94844 26H22.777C23.4654 25.9961 24.1244 25.7209 24.6112 25.2342C25.0979 24.7474 25.3731 24.0884 25.377 23.4V18.7349L24.7976 20.4286C24.4864 21.3981 23.8759 22.2441 23.0536 22.8447C22.2314 23.4454 21.2398 23.7698 20.2216 23.7714ZM22.777 1.48571H20.9199V1.11429C20.9199 0.818759 20.8025 0.535336 20.5935 0.326367C20.3845 0.117397 20.1011 0 19.8056 0C19.5101 0 19.2266 0.117397 19.0177 0.326367C18.8087 0.535336 18.6913 0.818759 18.6913 1.11429V1.48571H14.977V1.11429C14.977 0.818759 14.8596 0.535336 14.6506 0.326367C14.4417 0.117397 14.1583 0 13.8627 0C13.5672 0 13.2838 0.117397 13.0748 0.326367C12.8658 0.535336 12.7484 0.818759 12.7484 1.11429V1.48571H9.03415V1.11429C9.03415 0.818759 8.91675 0.535336 8.70779 0.326367C8.49882 0.117397 8.21539 0 7.91987 0C7.62434 0 7.34092 0.117397 7.13195 0.326367C6.92298 0.535336 6.80558 0.818759 6.80558 1.11429V1.48571H4.94844C4.26008 1.48961 3.60102 1.76479 3.11427 2.25155C2.62752 2.7383 2.35234 3.39735 2.34844 4.08571V7.42857H25.377V4.08571C25.3731 3.39735 25.0979 2.7383 24.6112 2.25155C24.1244 1.76479 23.4654 1.48961 22.777 1.48571Z" fill="#A0816C"/>
</svg>
