<svg width="10" height="18" viewBox="0 0 10 18" fill="none" xmlns="http://www.w3.org/2000/svg">
<path d="M9.94141 8.64258C9.94141 8.47331 9.91211 8.31706 9.85352 8.17383C9.78841 8.0306 9.69076 7.89388 9.56055 7.76367L1.95312 0.322266C1.73177 0.107422 1.46484 0 1.15234 0C0.9375 0 0.745442 0.0520833 0.576172 0.15625C0.400391 0.253906 0.260417 0.38737 0.15625 0.556641C0.052083 0.725911 0 0.917969 0 1.13281C0 1.4388 0.120442 1.71224 0.361328 1.95312L7.2168 8.64258L0.361328 15.332C0.120442 15.5729 0 15.8496 0 16.1621C0 16.3704 0.052083 16.5592 0.15625 16.7285C0.260417 16.9043 0.400391 17.041 0.576172 17.1387C0.745442 17.2428 0.9375 17.2949 1.15234 17.2949C1.46484 17.2949 1.73177 17.1842 1.95312 16.9629L9.56055 9.52148C9.69076 9.39128 9.78841 9.25456 9.85352 9.11133C9.91211 8.9681 9.94141 8.81185 9.94141 8.64258Z" fill="#A0816C"/>
</svg>
