<svg width="26" height="26" viewBox="0 0 26 26" fill="none" xmlns="http://www.w3.org/2000/svg">
<path d="M10.5499 2.36353H15.4501C17.6051 2.36349 19.3421 2.36347 20.7082 2.54715C22.1266 2.73783 23.3208 3.14578 24.2692 4.09426C24.3868 4.21181 24.496 4.33312 24.5977 4.45817L23.9825 5.07321L23.9737 5.08215C23.8775 5.1791 22.1557 6.90394 19.8905 8.59634C18.7577 9.44272 17.5143 10.2618 16.2903 10.8649C15.0496 11.4762 13.9234 11.8181 13 11.8181C12.0765 11.8181 10.9503 11.4762 9.70962 10.8649C8.48562 10.2618 7.24225 9.44274 6.10942 8.59634C3.84429 6.90395 2.12247 5.1791 2.0262 5.08215L2.01733 5.07321L1.40234 4.45823C1.50392 4.33316 1.61317 4.21182 1.73074 4.09426C2.6792 3.14578 3.87343 2.73783 5.29179 2.54715C6.65791 2.36347 8.39493 2.36349 10.5499 2.36353Z" fill="#A0816C"/>
<path d="M0.346132 6.74472C0.27891 7.03707 0.225917 7.34068 0.18362 7.65533C-5.36239e-05 9.02145 -2.87983e-05 10.7585 7.47133e-07 12.9134V13.0864C-2.87983e-05 15.2413 -5.36239e-05 16.9784 0.18362 18.3444C0.374306 19.7629 0.782258 20.9571 1.73074 21.9055C2.67921 22.854 3.87343 23.262 5.29179 23.4526C6.65793 23.6364 8.39493 23.6363 10.5499 23.6363H15.45C17.6051 23.6363 19.3421 23.6364 20.7082 23.4526C22.1266 23.262 23.3208 22.854 24.2692 21.9055C25.2178 20.9571 25.6257 19.7629 25.8163 18.3444C26.0001 16.9784 26 15.2413 26 13.0863V12.9135C26 10.7585 26.0001 9.02146 25.8163 7.65533C25.774 7.34064 25.7211 7.037 25.6538 6.74463L25.651 6.74752C25.5203 6.87917 23.705 8.69685 21.3052 10.4898C20.1056 11.3861 18.7345 12.2955 17.335 12.9851C15.9521 13.6666 14.4456 14.1817 13 14.1817C11.5543 14.1817 10.0478 13.6666 8.6649 12.9851C7.26535 12.2955 5.89432 11.3861 4.69469 10.4898C2.29493 8.69685 0.47963 6.87918 0.348909 6.74752L0.346132 6.74472Z" fill="#A0816C"/>
</svg>
