<svg width="128" height="135" viewBox="0 0 128 135" fill="none" xmlns="http://www.w3.org/2000/svg">
<path d="M86.4699 16.252C87.1975 17.2986 86.9042 18.7341 85.8329 19.4248C81.3312 22.327 78.87 27.243 79.0556 32.445C79.23 37.26 77.0165 41.8134 73.4165 44.0466C68.669 46.9941 61.9275 45.9703 57.3853 41.6138C52.9978 37.4062 46.6019 36.3313 41.0897 38.8772C39.9562 39.4006 39.1344 39.7561 38.3894 40.1493C37.3012 40.7236 35.9535 40.3104 35.3674 39.2282L21.315 13.2863C18.0708 7.29478 22.402 0 29.2294 0H71.6981C75.1097 0 78.1922 1.90125 79.7419 4.96406C81.9595 9.34678 84.293 13.1212 86.4699 16.252Z" fill="#A0816C" fill-opacity="0.3"/>
<path d="M37.1723 114.75C36.3656 111.3 34.279 105.718 28.924 101.632C23.7561 97.6899 14.5988 95.6157 11.3012 98.3008C6.94462 101.848 3.69056 106.504 1.85512 111.752C1.3424 113.216 2.42691 114.75 3.97884 114.75H37.1723Z" fill="#A0816C" fill-opacity="0.3"/>
<path d="M41.7722 114.75H44.488C48.0616 114.75 51.5637 113.518 54.35 111.28L104.47 71.0304C106.942 69.0453 108.209 65.8615 107.776 62.7211L106.51 53.5369C105.891 49.0487 107.541 44.5695 110.923 41.5545C110.931 41.5475 113.172 39.6069 113.172 39.6069C114.189 38.7266 114.212 37.1572 113.221 36.2479C108.949 32.329 105.644 29.2917 101.383 24.7226C94.9586 17.8322 83.2085 22.74 83.5531 32.2828C83.7879 38.78 80.8137 44.7523 75.7906 47.8694C69.3235 51.8831 60.2726 50.6178 54.2699 44.8612C51.229 41.9446 46.7956 41.199 42.9757 42.9622L40.9411 43.9013C38.1135 45.2063 36.1332 47.9386 35.7729 51.0321L35.1404 56.4636C35.0374 57.3467 35.4618 58.2085 36.2274 58.6601C40.625 61.2547 45.4898 62.1606 50.3596 60.594C51.5083 60.2245 52.7939 60.8047 53.2118 61.9364C53.657 63.1421 53.0082 64.4649 51.7974 64.8583C47.1725 66.3622 42.177 66.2322 37.1471 64.14C35.7594 63.5626 34.2044 64.4587 34.0306 65.9516C33.645 69.2669 33.5153 70.5461 33.3707 71.5524C33.2473 72.4102 33.6278 73.2612 34.3489 73.7422C39.178 76.9631 44.7242 78.056 50.3521 76.0661C51.5654 75.6381 52.8991 76.31 53.2636 77.5621C53.5994 78.7158 52.9218 79.9342 51.7878 80.3313C46.0081 82.3555 39.7804 81.9159 34.0162 78.812C32.8752 78.1975 31.4568 78.691 30.9185 79.8698C29.1272 83.7918 26.5195 87.324 23.2545 90.2395C21.9677 91.3884 22.4267 93.4921 24.0619 94.0414C33.5055 97.2136 39.8592 105.067 41.7722 114.75Z" fill="#A0816C" fill-opacity="0.3"/>
<path d="M127.563 60.3045C126.3 51.9483 123.743 47.1561 119.827 42.7337C119.011 41.8123 117.602 41.7237 116.671 42.5292L113.906 44.9235C111.653 46.9384 110.555 49.9275 110.967 52.922L112.233 62.1062C112.881 66.8051 110.986 71.5689 107.288 74.5389L57.1671 114.789C53.5851 117.666 49.0821 119.25 44.4876 119.25H2.40327C1.1683 119.25 0.167331 120.245 0.151581 121.48C0.051175 129.395 6.31574 135 13.3627 135H45.5687C51.7677 135 57.7873 132.78 62.5233 128.748L117.908 84.5896C125.244 78.7408 128.944 69.435 127.563 60.3045Z" fill="#A0816C" fill-opacity="0.3"/>
</svg>
