<svg width="26" height="26" viewBox="0 0 26 26" fill="none" xmlns="http://www.w3.org/2000/svg">
<path d="M18 0C22.4183 0 26 3.58172 26 8V11.7041C25.6053 10.1449 24.608 8.7398 23.1084 7.87402C20.1629 6.17358 16.3832 7.18641 14.6826 10.1318C13.1823 12.7305 13.7963 15.9762 15.9834 17.873L14.8916 19.7637L13.749 19.1045C13.1891 18.7815 12.473 18.9734 12.1494 19.5332C11.8259 20.0936 12.018 20.8104 12.5781 21.1338L13.7197 21.793L13.1465 22.7852C12.823 23.3454 13.0153 24.0623 13.5752 24.3857C14.1353 24.7091 14.8522 24.5173 15.1758 23.957L15.749 22.9648L16.8906 23.624C17.4508 23.9474 18.1677 23.7557 18.4912 23.1953C18.8147 22.635 18.6225 21.9182 18.0625 21.5947L16.9199 20.9355L18.0117 19.0449C20.748 19.9905 23.8659 18.8984 25.3662 16.2998C25.6551 15.7994 25.8639 15.2745 26 14.7402V18C26 22.4183 22.4183 26 18 26H8C3.58172 26 1.61069e-07 22.4183 0 18V14.3857C0.394456 15.9455 1.39155 17.3517 2.8916 18.2178C5.83697 19.9182 9.61665 18.9051 11.3174 15.96C12.8175 13.3616 12.2044 10.1156 10.0176 8.21875L11.5312 5.5957L11.7344 6.22852C11.8268 6.51681 12.0207 6.74449 12.2637 6.88477C12.5402 7.04432 12.8804 7.09124 13.208 6.98633C13.8236 6.78841 14.1621 6.12862 13.9648 5.5127L12.9541 2.3623C12.9527 2.36226 12.9517 2.36237 12.9502 2.3623C12.8643 2.0954 12.6866 1.85727 12.4248 1.70605C12.1624 1.55458 11.8664 1.51959 11.5918 1.5791C11.5915 1.57763 11.5911 1.57671 11.5908 1.5752L8.35742 2.27441C7.72534 2.41151 7.32353 3.03587 7.45996 3.66797C7.53289 4.00434 7.74405 4.27496 8.02051 4.43457C8.26355 4.57484 8.55769 4.62846 8.85352 4.56445L9.50195 4.4248L7.98828 7.04688C5.25205 6.10126 2.13401 7.19263 0.633789 9.79102C0.345078 10.2911 0.13612 10.8157 0 11.3496V8C0 3.58172 3.58172 1.61064e-07 8 0H18ZM16.7119 11.3037C17.7665 9.47711 20.1109 8.84873 21.9375 9.90332C23.7638 10.958 24.3914 13.3024 23.3369 15.1289C22.2821 16.9555 19.9378 17.5838 18.1113 16.5293C16.2849 15.4747 15.6573 13.1305 16.7119 11.3037ZM2.66309 10.9629C3.71768 9.13628 6.06207 8.50791 7.88867 9.5625C9.71515 10.6171 10.3435 12.9615 9.28906 14.7881C8.23454 16.6146 5.89003 17.2428 4.06348 16.1885C2.23691 15.1339 1.60859 12.7895 2.66309 10.9629Z" fill="#A0816C"/>
</svg>
