<svg width="24" height="24" viewBox="0 0 24 24" fill="none" xmlns="http://www.w3.org/2000/svg">
<path d="M12.5267 2C11.4226 2 10.5197 2.89926 10.5197 4C10.5197 5.10074 11.4226 6 12.5267 6C13.6308 6 14.5323 5.09926 14.5323 4C14.5323 2.90074 13.6293 2 12.5267 2ZM18.5136 2C18.004 2 17.5838 2.3837 17.5302 2.87704C17.5302 2.88889 17.5287 2.89926 17.5287 2.91111C17.4408 4.21037 16.9267 5.21481 16.0178 5.93926C15.2147 6.53926 14.5323 7 12.5267 7C10.5212 7 8.7242 7.81037 7.6201 8.70963C6.36699 9.77926 5.66519 11.16 5.52811 12.8652C5.52364 12.9096 5.52066 12.9541 5.51917 12.9985C5.51917 13.5437 5.95724 13.9881 6.50109 14H6.5592C7.05687 13.9852 7.46215 13.6119 7.52324 13.1304C7.52473 13.1007 7.52771 13.0711 7.53069 13.043C7.62904 11.8119 8.10733 11.0252 8.91492 10.4C9.01475 10.2993 9.2159 10.2 9.51689 10.0993V21.0015C9.51689 21.5526 9.96538 22 10.5197 22C11.074 22 11.5225 21.5526 11.5225 21.0015V16.997C11.5225 16.4459 11.9724 16 12.5267 16C13.081 16 13.5295 16.4459 13.5295 16.997V21.0015C13.5295 21.5526 13.978 22 14.5323 22C15.0866 22 15.5366 21.5526 15.5366 21.0015V8.4C16.1385 8.2 16.7405 7.89926 17.2411 7.49926C18.5866 6.42667 19.2914 4.95407 19.4955 3.08148C19.4985 3.04741 19.5 3.01482 19.5 2.98074C19.5 2.43852 19.059 2 18.5136 2ZM6.76483 16H5.24501C4.83376 16 4.5 16.3319 4.5 16.7407V21.2593C4.5 21.6681 4.83376 22 5.24501 22H6.76483C7.17607 22 7.50983 21.6681 7.50983 21.2593V16.7407C7.50983 16.3319 7.17607 16 6.76483 16Z" fill="#3B3333" fill-opacity="0.6"/>
</svg>
