<svg width="26" height="26" viewBox="0 0 26 26" fill="none" xmlns="http://www.w3.org/2000/svg">
<path d="M18 0C22.4183 0 26 3.58172 26 8V18C26 22.4183 22.4183 26 18 26H8C3.58172 26 1.61069e-07 22.4183 0 18V8C0 3.58172 3.58172 1.61064e-07 8 0H18ZM15 4.5C14.1716 4.5 13.5 5.17157 13.5 6C13.5 6.82843 14.1716 7.5 15 7.5H16.3789L7.5 16.3789V15C7.5 14.1716 6.82843 13.5 6 13.5C5.17157 13.5 4.5 14.1716 4.5 15V20C4.5 20.1292 4.51713 20.2544 4.54785 20.374C4.55305 20.3943 4.5584 20.4145 4.56445 20.4346C4.56562 20.4384 4.56619 20.4425 4.56738 20.4463L4.61035 20.5645C4.61117 20.5665 4.61245 20.5683 4.61328 20.5703C4.64602 20.6498 4.68514 20.7259 4.73047 20.7979C4.73676 20.8078 4.74247 20.8182 4.74902 20.8281C4.85997 20.9954 5.00374 21.1389 5.1709 21.25C5.18077 21.2566 5.19118 21.2622 5.20117 21.2686C5.23297 21.2886 5.26548 21.3075 5.29883 21.3252C5.30901 21.3306 5.3198 21.3347 5.33008 21.3398C5.36246 21.3561 5.39504 21.3718 5.42871 21.3857C5.44514 21.3925 5.46191 21.3981 5.47852 21.4043C5.50693 21.4149 5.53525 21.4257 5.56445 21.4346C5.58452 21.4406 5.60474 21.446 5.625 21.4512C5.65275 21.4583 5.68064 21.4651 5.70898 21.4707C5.7326 21.4754 5.7565 21.4779 5.78027 21.4814C5.80365 21.4849 5.82687 21.4898 5.85059 21.4922C5.90027 21.4971 5.95012 21.5 6 21.5H11C11.8284 21.5 12.5 20.8284 12.5 20C12.5 19.1716 11.8284 18.5 11 18.5H9.62109L18.5 9.62109V11C18.5 11.8284 19.1716 12.5 20 12.5C20.8284 12.5 21.5 11.8284 21.5 11V6C21.5 5.86897 21.4818 5.74224 21.4502 5.62109C21.4453 5.60215 21.4403 5.58323 21.4346 5.56445C21.4257 5.53525 21.4149 5.50693 21.4043 5.47852C21.3981 5.46191 21.3925 5.44514 21.3857 5.42871C21.3529 5.3492 21.314 5.27312 21.2686 5.20117C21.2622 5.19118 21.2566 5.18077 21.25 5.1709C21.1389 5.00374 20.9954 4.85997 20.8281 4.74902C20.8182 4.74247 20.8078 4.73676 20.7979 4.73047C20.766 4.71044 20.7336 4.69148 20.7002 4.67383C20.69 4.66844 20.6792 4.66431 20.6689 4.65918C20.6366 4.64299 20.604 4.62714 20.5703 4.61328C20.5683 4.61245 20.5665 4.61117 20.5645 4.61035L20.4463 4.56738C20.4425 4.56619 20.4384 4.56562 20.4346 4.56445C20.4145 4.5584 20.3943 4.55305 20.374 4.54785C20.3463 4.54073 20.3184 4.53387 20.29 4.52832C20.2664 4.52369 20.2425 4.52107 20.2188 4.51758C20.1954 4.51416 20.1721 4.50916 20.1484 4.50684C20.0991 4.50196 20.0495 4.5 20 4.5H15Z" fill="#A0816C"/>
</svg>
