<svg width="204" height="57" viewBox="0 0 204 57" fill="none" xmlns="http://www.w3.org/2000/svg">
<path d="M29.0727 32.8717V32.8168C30.297 32.0311 31.2655 31.0078 31.9599 29.7287C32.6543 28.4495 33.0015 27.0973 33.0015 25.6537V22.5107C33.0015 19.5139 31.8502 17.1019 29.5295 15.2746C27.2088 13.4472 24.1572 12.5336 20.3381 12.5336H0L0 50.4871C0 52.0037 0.493387 53.2463 1.48014 54.2148C2.4669 55.1833 3.72774 55.6584 5.29924 55.6584H22.7502C26.7337 55.6584 29.8767 54.6716 32.2157 52.6616C34.5547 50.6698 35.7242 47.9654 35.7242 44.5665V41.4784C35.7242 39.5048 35.1212 37.7324 33.9151 36.1791C32.7091 34.6259 31.101 33.5112 29.091 32.8534L29.0727 32.8717ZM7.18138 18.8196H20.0823C21.8 18.8196 23.1887 19.2033 24.2303 19.989C25.2719 20.7748 25.8018 21.8164 25.8018 23.132V25.6537C25.8018 27.207 25.3267 28.4861 24.3948 29.4728C23.4445 30.4596 22.2202 30.953 20.7036 30.953H7.18138V18.8196ZM28.5062 44.2742C28.5062 45.8822 27.9398 47.1248 26.8068 48.0384C25.6739 48.9338 24.1207 49.3907 22.1106 49.3907H7.18138V36.8735H23.0974C24.742 36.8735 26.0394 37.2938 27.0261 38.1344C28.0129 38.9749 28.5062 40.0896 28.5062 41.4966V44.2742Z" fill="white"/>
<path d="M71.1376 14.0533C68.7438 12.7193 65.9845 12.0432 62.8781 12.0432H56.3546C53.2481 12.0432 50.4888 12.7193 48.1133 14.0533C45.7378 15.3872 43.8922 17.2876 42.5765 19.718C41.2609 22.1666 40.603 24.9807 40.603 28.1967V40.0378C40.603 43.2356 41.2609 46.068 42.5765 48.5166C43.8922 50.9652 45.7378 52.8473 48.1133 54.1813C50.4888 55.5152 53.2298 56.1913 56.3546 56.1913H62.8781C65.9845 56.1913 68.7438 55.5152 71.1376 54.1813C73.5314 52.8473 75.3952 50.9652 76.6926 48.5166C78.0083 46.068 78.6662 43.2539 78.6662 40.0378V28.1967C78.6662 24.9989 78.0083 22.1666 76.6926 19.718C75.377 17.2694 73.5314 15.3872 71.1376 14.0533ZM71.4848 39.782C71.4848 42.7788 70.6808 45.2091 69.091 47.0547C67.5012 48.9003 65.4181 49.8322 62.8781 49.8322H56.4276C53.8511 49.8322 51.768 48.9003 50.1965 47.0547C48.625 45.2091 47.821 42.7788 47.821 39.782V28.4343C47.821 25.4375 48.6067 23.0071 50.1965 21.1616C51.768 19.316 53.8511 18.384 56.4276 18.384H62.8781C65.4546 18.384 67.5378 19.316 69.1093 21.1616C70.6807 23.0071 71.4848 25.4375 71.4848 28.4343V39.782Z" fill="white"/>
<path d="M122.119 33.608V40.8259C122.119 43.8227 121.479 46.4906 120.218 48.793C118.939 51.1137 117.167 52.9228 114.882 54.2202C112.58 55.5176 109.949 56.1572 106.952 56.1572H99.9532C96.8651 56.1572 94.1789 55.481 91.8582 54.1654C89.5558 52.8314 87.7467 50.9493 86.4859 48.5007C85.2067 46.0521 84.5854 43.238 84.5854 40.0219V28.1808C84.5854 24.983 85.225 22.1507 86.5224 19.7203C87.8015 17.2717 89.6289 15.3896 91.9861 14.0556C94.3434 12.7217 97.0478 12.0638 100.118 12.0638H106.879C109.839 12.0638 112.434 12.6669 114.681 13.8729C116.947 15.0789 118.683 16.7966 119.908 18.9894C121.15 21.1822 121.753 23.7222 121.753 26.5911H114.681C114.681 24.1242 113.969 22.1507 112.525 20.6523C111.082 19.1539 109.199 18.3864 106.861 18.3864H100.099C97.6143 18.3864 95.5859 19.3 94.051 21.1456C92.516 22.973 91.7486 25.4033 91.7486 28.4367V39.7661C91.7486 42.8177 92.4978 45.248 93.9779 47.0754C95.4763 48.9027 97.4681 49.8163 99.9167 49.8163H106.915C109.309 49.8163 111.246 48.9758 112.763 47.2946C114.279 45.5952 115.029 43.4572 115.029 40.8259V39.894H106.605L113.22 33.608H122.082H122.119Z" fill="white"/>
<path d="M179.479 12.2275L172.955 18.4587H179.954H204.001V12.2275H179.479Z" fill="white"/>
<path d="M179.662 39.907H202.157V33.621H176.044H165.574H156.693L150.078 39.907H158.502V40.839C158.502 43.4703 157.734 45.6265 156.236 47.3077C154.719 48.9888 152.764 49.8294 150.389 49.8294H143.39C140.923 49.8294 138.95 48.9157 137.451 47.0884C135.953 45.2611 135.204 42.8307 135.204 39.7791V28.4314C135.204 25.3981 135.971 22.9495 137.506 21.1222C139.041 19.2948 141.069 18.3812 143.554 18.3812H150.316C152.655 18.3812 154.537 19.1304 155.962 20.6288C157.387 22.1272 158.118 24.119 158.118 26.5676H165.19C165.19 23.6987 164.569 21.1587 163.344 18.9476C162.12 16.7549 160.366 15.0372 158.118 13.8311C155.871 12.6251 153.258 12.0221 150.316 12.0221H143.554C140.485 12.0221 137.762 12.6982 135.405 14.0321C133.047 15.3661 131.22 17.2665 129.941 19.6968C128.643 22.1455 128.004 24.9595 128.004 28.1756V40.0167C128.004 43.2145 128.643 46.0468 129.904 48.4954C131.165 50.9441 132.974 52.8262 135.277 54.1601C137.597 55.4941 140.284 56.1702 143.353 56.1702H150.352C153.349 56.1702 155.98 55.5306 158.283 54.2332C160.585 52.9358 162.358 51.1268 163.637 48.8061C164.898 46.4854 165.537 43.8175 165.537 40.8207V39.907H172.426V50.4324C172.426 51.9856 172.901 53.2648 173.87 54.215C174.838 55.1834 176.117 55.6585 177.707 55.6585H203.966V49.4274H179.626V39.8888L179.662 39.907Z" fill="white"/>
<path d="M52.553 7.89403C54.7329 7.89403 56.5 6.12689 56.5 3.94702C56.5 1.76714 54.7329 0 52.553 0C50.3731 0 48.606 1.76714 48.606 3.94702C48.606 6.12689 50.3731 7.89403 52.553 7.89403Z" fill="white"/>
<path d="M66.8616 7.89403C69.0415 7.89403 70.8086 6.12689 70.8086 3.94702C70.8086 1.76714 69.0415 0 66.8616 0C64.6817 0 62.9146 1.76714 62.9146 3.94702C62.9146 6.12689 64.6817 7.89403 66.8616 7.89403Z" fill="white"/>
</svg>
