<svg width="101" height="135" viewBox="0 0 101 135" fill="none" xmlns="http://www.w3.org/2000/svg">
<path d="M54.0341 0C46.6241 0 40.5641 6.07 40.5641 13.5C40.5641 20.93 46.6241 27 54.0341 27C61.4441 27 67.4941 20.92 67.4941 13.5C67.4941 6.08 61.4341 0 54.0341 0ZM94.2141 0C90.7941 0 87.9741 2.59 87.6141 5.92C87.6141 6 87.6041 6.07 87.6041 6.15C87.0141 14.92 83.5641 21.7 77.4641 26.59C72.0741 30.64 67.4941 33.75 54.0341 33.75C40.5741 33.75 28.5141 39.22 21.1041 45.29C12.6941 52.51 7.98406 61.83 7.06406 73.34C7.03406 73.64 7.01407 73.94 7.00407 74.24C7.00407 77.92 9.94406 80.92 13.5941 81H13.9841C17.3241 80.9 20.0441 78.38 20.4541 75.13C20.4641 74.93 20.4841 74.73 20.5041 74.54C21.1641 66.23 24.3741 60.92 29.7941 56.7C30.4641 56.02 31.8141 55.35 33.8341 54.67V128.26C33.8341 131.98 36.8441 135 40.5641 135C44.2841 135 47.2941 131.98 47.2941 128.26V101.23C47.2941 97.51 50.3141 94.5 54.0341 94.5C57.7541 94.5 60.7641 97.51 60.7641 101.23V128.26C60.7641 131.98 63.7741 135 67.4941 135C71.2141 135 74.2341 131.98 74.2341 128.26V43.2C78.2741 41.85 82.3141 39.82 85.6741 37.12C94.7041 29.88 99.4341 19.94 100.804 7.3C100.824 7.07 100.834 6.85 100.834 6.62C100.834 2.96 97.8741 0 94.2141 0ZM15.3641 94.5H5.16406C2.40406 94.5 0.164062 96.74 0.164062 99.5V130C0.164062 132.76 2.40406 135 5.16406 135H15.3641C18.1241 135 20.3641 132.76 20.3641 130V99.5C20.3641 96.74 18.1241 94.5 15.3641 94.5Z" fill="#A0816C" fill-opacity="0.3"/>
</svg>
