<svg width="33" height="32" viewBox="0 0 33 32" fill="none" xmlns="http://www.w3.org/2000/svg">
<path d="M7.02868 22.2072C7.49583 21.6721 7.34503 20.9872 6.82673 20.4019C5.05859 18.4401 4.08065 15.8079 4.08065 12.9308C4.08065 10.5747 4.73958 8.40991 5.93798 6.62116L4.18298 4.86616C2.54905 7.09178 1.64209 9.92893 1.64209 12.9308C1.64209 16.4599 2.87691 19.7416 5.10977 22.1402C5.71753 22.7968 6.55191 22.7703 7.02868 22.2072ZM11.1285 18.3155C11.5812 17.7851 11.4095 17.1271 10.9592 16.5175C10.2135 15.5842 9.81788 14.2682 9.81788 12.9308C9.81788 12.2167 9.96172 11.5283 10.2116 10.8838L8.32057 8.99277C7.69834 10.1628 7.37931 11.52 7.37931 12.9308C7.37931 14.943 8.03691 16.8259 9.20209 18.2314C9.75521 18.9101 10.6504 18.8896 11.1285 18.3155ZM16.2775 28.4322C16.9889 28.4322 17.4303 27.9191 17.4303 27.131V18.1136L15.1161 15.7993V27.131C15.1161 27.9008 15.5868 28.4322 16.2775 28.4322ZM24.2683 16.7515C24.8593 15.645 25.1671 14.3226 25.1671 12.9308C25.1671 10.9211 24.5071 9.03804 23.3444 7.63258C22.7912 6.95143 21.8936 6.97447 21.4156 7.54848C20.9653 8.07884 21.1479 8.72357 21.5848 9.34418C22.2976 10.3128 22.7286 11.5957 22.7286 12.9308C22.7286 13.6004 22.6094 14.2698 22.3659 14.8626L24.2683 16.7515ZM28.4267 20.921C30.0317 18.6895 30.902 15.9051 30.902 12.9308C30.902 9.40902 29.643 6.09349 27.4343 3.72375C26.8265 3.06965 25.9921 3.09616 25.5153 3.65679C25.0483 4.19438 25.2014 4.87928 25.7173 5.46455C27.483 7.42392 28.4659 10.0537 28.4659 12.9308C28.4659 15.2497 27.834 17.3858 26.6545 19.1488L28.4267 20.921Z" fill="white"/>
<path d="M27.8153 25.9097C28.2339 26.3259 28.9143 26.3211 29.3233 25.9097C29.731 25.4824 29.7371 24.8203 29.3233 24.4089L5.22662 0.3146C4.80796 -0.10406 4.11903 -0.10406 3.70519 0.309779C3.30475 0.710225 3.30716 1.41737 3.70519 1.81782L27.8153 25.9097Z" fill="white"/>
</svg>
