<svg width="12" height="14" viewBox="0 0 12 14" fill="none" xmlns="http://www.w3.org/2000/svg">
<path d="M0 12.7833V1.21667C0 0.8 0.0991293 0.494444 0.297388 0.3C0.495646 0.1 0.731413 0 1.00469 0C1.24581 0 1.4923 0.0722222 1.74414 0.216667L11.1078 5.89167C11.4401 6.09167 11.6705 6.27222 11.7991 6.43333C11.933 6.58889 12 6.77778 12 7C12 7.21667 11.933 7.40556 11.7991 7.56667C11.6705 7.72778 11.4401 7.90833 11.1078 8.10833L1.74414 13.7833C1.4923 13.9278 1.24581 14 1.00469 14C0.731413 14 0.495646 13.9 0.297388 13.7C0.0991293 13.5 0 13.1944 0 12.7833Z" fill="white"/>
</svg>
