<svg width="12" height="12" viewBox="0 0 12 12" fill="none" xmlns="http://www.w3.org/2000/svg">
<path d="M4.54053 11.397C4.19189 11.397 3.89307 11.242 3.64404 10.9321L0.265625 6.64062C0.171549 6.52441 0.102376 6.41374 0.0581055 6.30859C0.0193685 6.19792 0 6.09001 0 5.98486C0 5.72477 0.0830078 5.51449 0.249023 5.354C0.415039 5.19352 0.625326 5.11328 0.879883 5.11328C1.17871 5.11328 1.4305 5.24609 1.63525 5.51172L4.50732 9.29688L10.0356 0.473145C10.1519 0.296061 10.2681 0.174316 10.3843 0.10791C10.5005 0.0359701 10.6471 0 10.8242 0C11.0788 0 11.2863 0.0802409 11.4468 0.240723C11.6073 0.395671 11.6875 0.597656 11.6875 0.84668C11.6875 0.946289 11.6709 1.04867 11.6377 1.15381C11.6045 1.25895 11.5464 1.3724 11.4634 1.49414L5.42871 10.9238C5.21842 11.2393 4.92236 11.397 4.54053 11.397Z" fill="white"/>
</svg>
