<svg width="44" height="44" viewBox="0 0 44 44" fill="none" xmlns="http://www.w3.org/2000/svg">
<g clip-path="url(#clip0_614_1140)">
<path d="M16.5112 0V3.67044H20.1817V5.50561C21.4663 5.32212 22.5674 5.32212 23.8521 5.50561V3.67044H27.5225V0H16.5112Z" fill="#A0816C"/>
<path d="M34.4965 12.1125L35.7811 10.8279L37.2493 12.2961L39.8186 9.7268L34.313 4.22119L31.7437 6.79051L33.2119 8.25861L31.5602 9.9103C22.7512 4.58817 11.3729 7.34098 6.23435 16.15C1.09581 24.9589 3.84853 35.9702 12.474 41.2923C21.0995 46.6144 32.4777 43.8616 37.6163 35.0526C42.2043 27.5283 40.9197 17.9852 34.4965 12.1125ZM22.0171 38.356C14.8598 38.356 9.17065 32.6669 9.17065 25.5096C9.17065 18.3523 14.8598 12.6631 22.0171 12.6631V25.5095H34.8635C34.8635 32.6668 29.1744 38.356 22.0171 38.356Z" fill="#A0816C"/>
</g>
<defs>
<clipPath id="clip0_614_1140">
<rect width="44" height="44" fill="white"/>
</clipPath>
</defs>
</svg>
