<svg width="26" height="26" viewBox="0 0 26 26" fill="none" xmlns="http://www.w3.org/2000/svg">
<path d="M18 0C22.4183 0 26 3.58172 26 8V18C26 22.4183 22.4183 26 18 26H8C3.58172 26 1.61069e-07 22.4183 0 18V8C0 3.58172 3.58172 1.61064e-07 8 0H18ZM12.6934 3.5459C9.85257 3.54597 7.18151 4.65195 5.17285 6.66113C4.9422 6.89186 4.94226 7.26527 5.17285 7.49609L8.51465 10.8389C8.7454 11.0697 9.11973 11.0696 9.35059 10.8389C9.67311 10.5164 10.0487 10.2724 10.4424 10.0664L9.20117 7.33594C9.06626 7.03881 9.1971 6.68785 9.49414 6.55273C9.79302 6.41666 10.1425 6.55018 10.2764 6.84668L11.5508 9.64844C13.1181 9.27881 14.8624 9.66525 16.0361 10.8389C16.1515 10.9542 16.303 11.0117 16.4541 11.0117C16.6052 11.0117 16.7567 10.9542 16.8721 10.8389L20.2139 7.49707C20.4447 7.26623 20.4447 6.89192 20.2139 6.66113C18.2052 4.65194 15.5342 3.5459 12.6934 3.5459Z" fill="#A0816C"/>
</svg>
